<mxfile host="app.diagrams.net" modified="2021-03-25T13:15:50.621Z" agent="5.0 (Windows NT 10.0; Win64; x64) AppleWebKit/537.36 (KHTML, like Gecko) Chrome/89.0.4389.90 Safari/537.36" etag="1L-haMs6ui17k5xIsEON" version="14.4.3" type="github">
  <diagram name="Page-1" id="e7e014a7-5840-1c2e-5031-d8a46d1fe8dd">
    <mxGraphModel dx="1185" dy="1461" grid="1" gridSize="10" guides="1" tooltips="1" connect="1" arrows="1" fold="1" page="1" pageScale="1" pageWidth="1169" pageHeight="826" background="#ffffff" math="0" shadow="0">
      <root>
        <mxCell id="0" />
        <mxCell id="1" parent="0" />
        <mxCell id="qVdDe4i9rsVP6nm5vsIZ-41" value="" style="rounded=0;whiteSpace=wrap;html=1;" parent="1" vertex="1">
          <mxGeometry x="242.5" y="-670" width="575" height="750" as="geometry" />
        </mxCell>
        <mxCell id="qVdDe4i9rsVP6nm5vsIZ-42" value="Sistema automatizado de produção de pizzas" style="text;html=1;strokeColor=none;fillColor=none;align=center;verticalAlign=middle;whiteSpace=wrap;rounded=0;" parent="1" vertex="1">
          <mxGeometry x="250" y="-700" width="290" height="70" as="geometry" />
        </mxCell>
        <mxCell id="qVdDe4i9rsVP6nm5vsIZ-43" value="Worker" style="shape=umlActor;verticalLabelPosition=bottom;verticalAlign=top;html=1;outlineConnect=0;" parent="1" vertex="1">
          <mxGeometry x="180" y="-540" width="30" height="60" as="geometry" />
        </mxCell>
        <mxCell id="qVdDe4i9rsVP6nm5vsIZ-44" value="Sensors" style="rounded=0;whiteSpace=wrap;html=1;" parent="1" vertex="1">
          <mxGeometry x="910" y="-380" width="120" height="60" as="geometry" />
        </mxCell>
        <mxCell id="qVdDe4i9rsVP6nm5vsIZ-45" value="Actuators" style="rounded=0;whiteSpace=wrap;html=1;" parent="1" vertex="1">
          <mxGeometry x="910" y="-520" width="120" height="60" as="geometry" />
        </mxCell>
        <mxCell id="qVdDe4i9rsVP6nm5vsIZ-46" value="Manual Control" style="ellipse;whiteSpace=wrap;html=1;" parent="1" vertex="1">
          <mxGeometry x="510" y="-660" width="120" height="80" as="geometry" />
        </mxCell>
        <mxCell id="qVdDe4i9rsVP6nm5vsIZ-47" value="Remove or add sensor/sensor" style="ellipse;whiteSpace=wrap;html=1;" parent="1" vertex="1">
          <mxGeometry x="570" y="-130" width="120" height="80" as="geometry" />
        </mxCell>
        <mxCell id="qVdDe4i9rsVP6nm5vsIZ-48" value="Visualize sensors data" style="ellipse;whiteSpace=wrap;html=1;" parent="1" vertex="1">
          <mxGeometry x="280" y="-360" width="120" height="80" as="geometry" />
        </mxCell>
        <mxCell id="qVdDe4i9rsVP6nm5vsIZ-49" value="Login" style="ellipse;whiteSpace=wrap;html=1;" parent="1" vertex="1">
          <mxGeometry x="470" y="-20" width="120" height="80" as="geometry" />
        </mxCell>
        <mxCell id="qVdDe4i9rsVP6nm5vsIZ-50" value="" style="endArrow=none;html=1;entryX=0;entryY=0.5;entryDx=0;entryDy=0;exitX=1;exitY=0.5;exitDx=0;exitDy=0;" parent="1" source="qVdDe4i9rsVP6nm5vsIZ-48" target="qVdDe4i9rsVP6nm5vsIZ-44" edge="1">
          <mxGeometry width="50" height="50" relative="1" as="geometry">
            <mxPoint x="490" y="-240" as="sourcePoint" />
            <mxPoint x="540" y="-290" as="targetPoint" />
          </mxGeometry>
        </mxCell>
        <mxCell id="qVdDe4i9rsVP6nm5vsIZ-51" value="" style="endArrow=none;html=1;entryX=0;entryY=0.5;entryDx=0;entryDy=0;exitX=1;exitY=0.5;exitDx=0;exitDy=0;" parent="1" source="qVdDe4i9rsVP6nm5vsIZ-46" target="qVdDe4i9rsVP6nm5vsIZ-45" edge="1">
          <mxGeometry width="50" height="50" relative="1" as="geometry">
            <mxPoint x="490" y="-240" as="sourcePoint" />
            <mxPoint x="540" y="-290" as="targetPoint" />
          </mxGeometry>
        </mxCell>
        <mxCell id="qVdDe4i9rsVP6nm5vsIZ-52" value="" style="endArrow=none;html=1;entryX=0;entryY=0.5;entryDx=0;entryDy=0;exitX=0.5;exitY=0.5;exitDx=0;exitDy=0;exitPerimeter=0;" parent="1" source="qVdDe4i9rsVP6nm5vsIZ-43" target="qVdDe4i9rsVP6nm5vsIZ-46" edge="1">
          <mxGeometry width="50" height="50" relative="1" as="geometry">
            <mxPoint x="230" y="-510" as="sourcePoint" />
            <mxPoint x="540" y="-290" as="targetPoint" />
          </mxGeometry>
        </mxCell>
        <mxCell id="qVdDe4i9rsVP6nm5vsIZ-53" value="Administrator" style="shape=umlActor;verticalLabelPosition=bottom;verticalAlign=top;html=1;outlineConnect=0;" parent="1" vertex="1">
          <mxGeometry x="180" y="-270" width="30" height="60" as="geometry" />
        </mxCell>
        <mxCell id="qVdDe4i9rsVP6nm5vsIZ-54" value="" style="endArrow=none;html=1;entryX=0;entryY=0.5;entryDx=0;entryDy=0;exitX=0.5;exitY=0.5;exitDx=0;exitDy=0;exitPerimeter=0;" parent="1" source="qVdDe4i9rsVP6nm5vsIZ-53" target="qVdDe4i9rsVP6nm5vsIZ-48" edge="1">
          <mxGeometry width="50" height="50" relative="1" as="geometry">
            <mxPoint x="490" y="-250" as="sourcePoint" />
            <mxPoint x="540" y="-300" as="targetPoint" />
          </mxGeometry>
        </mxCell>
        <mxCell id="qVdDe4i9rsVP6nm5vsIZ-55" value="" style="endArrow=none;html=1;entryX=0.5;entryY=0.5;entryDx=0;entryDy=0;entryPerimeter=0;exitX=0;exitY=0.5;exitDx=0;exitDy=0;" parent="1" source="qVdDe4i9rsVP6nm5vsIZ-48" target="qVdDe4i9rsVP6nm5vsIZ-43" edge="1">
          <mxGeometry width="50" height="50" relative="1" as="geometry">
            <mxPoint x="490" y="-250" as="sourcePoint" />
            <mxPoint x="540" y="-300" as="targetPoint" />
          </mxGeometry>
        </mxCell>
        <mxCell id="qVdDe4i9rsVP6nm5vsIZ-57" value="" style="endArrow=none;html=1;entryX=0;entryY=0.5;entryDx=0;entryDy=0;exitX=0.5;exitY=0.5;exitDx=0;exitDy=0;exitPerimeter=0;" parent="1" source="qVdDe4i9rsVP6nm5vsIZ-53" target="qVdDe4i9rsVP6nm5vsIZ-47" edge="1">
          <mxGeometry width="50" height="50" relative="1" as="geometry">
            <mxPoint x="490" y="-250" as="sourcePoint" />
            <mxPoint x="540" y="-300" as="targetPoint" />
          </mxGeometry>
        </mxCell>
        <mxCell id="qVdDe4i9rsVP6nm5vsIZ-58" value="«include»" style="endArrow=open;endSize=12;dashed=1;html=1;entryX=0.5;entryY=0;entryDx=0;entryDy=0;exitX=0;exitY=1;exitDx=0;exitDy=0;" parent="1" source="qVdDe4i9rsVP6nm5vsIZ-47" target="qVdDe4i9rsVP6nm5vsIZ-49" edge="1">
          <mxGeometry width="160" relative="1" as="geometry">
            <mxPoint x="440" y="-280" as="sourcePoint" />
            <mxPoint x="600" y="-280" as="targetPoint" />
          </mxGeometry>
        </mxCell>
        <mxCell id="qVdDe4i9rsVP6nm5vsIZ-59" value="" style="endArrow=none;html=1;exitX=1;exitY=0.5;exitDx=0;exitDy=0;entryX=0;entryY=0.5;entryDx=0;entryDy=0;" parent="1" source="qVdDe4i9rsVP6nm5vsIZ-47" target="qVdDe4i9rsVP6nm5vsIZ-44" edge="1">
          <mxGeometry width="50" height="50" relative="1" as="geometry">
            <mxPoint x="500" y="-250" as="sourcePoint" />
            <mxPoint x="550" y="-300" as="targetPoint" />
          </mxGeometry>
        </mxCell>
        <mxCell id="qVdDe4i9rsVP6nm5vsIZ-60" value="" style="endArrow=none;html=1;entryX=0;entryY=0.5;entryDx=0;entryDy=0;exitX=1;exitY=0.5;exitDx=0;exitDy=0;" parent="1" source="qVdDe4i9rsVP6nm5vsIZ-47" target="qVdDe4i9rsVP6nm5vsIZ-45" edge="1">
          <mxGeometry width="50" height="50" relative="1" as="geometry">
            <mxPoint x="500" y="-250" as="sourcePoint" />
            <mxPoint x="550" y="-300" as="targetPoint" />
          </mxGeometry>
        </mxCell>
        <mxCell id="qVdDe4i9rsVP6nm5vsIZ-61" value="Automatic Production" style="ellipse;whiteSpace=wrap;html=1;" parent="1" vertex="1">
          <mxGeometry x="600" y="-460" width="120" height="80" as="geometry" />
        </mxCell>
        <mxCell id="qVdDe4i9rsVP6nm5vsIZ-62" value="" style="endArrow=none;html=1;entryX=1;entryY=0.5;entryDx=0;entryDy=0;exitX=0;exitY=0.5;exitDx=0;exitDy=0;" parent="1" source="qVdDe4i9rsVP6nm5vsIZ-45" target="qVdDe4i9rsVP6nm5vsIZ-61" edge="1">
          <mxGeometry width="50" height="50" relative="1" as="geometry">
            <mxPoint x="500" y="-250" as="sourcePoint" />
            <mxPoint x="550" y="-300" as="targetPoint" />
          </mxGeometry>
        </mxCell>
        <mxCell id="qVdDe4i9rsVP6nm5vsIZ-63" value="" style="endArrow=none;html=1;entryX=0;entryY=0.5;entryDx=0;entryDy=0;exitX=1;exitY=0.5;exitDx=0;exitDy=0;" parent="1" source="qVdDe4i9rsVP6nm5vsIZ-61" target="qVdDe4i9rsVP6nm5vsIZ-44" edge="1">
          <mxGeometry width="50" height="50" relative="1" as="geometry">
            <mxPoint x="500" y="-250" as="sourcePoint" />
            <mxPoint x="550" y="-300" as="targetPoint" />
          </mxGeometry>
        </mxCell>
        <mxCell id="q354FGi6mWP-DZzxLEKj-1" value="Visualize actuators state" style="ellipse;whiteSpace=wrap;html=1;" parent="1" vertex="1">
          <mxGeometry x="280" y="-540" width="120" height="80" as="geometry" />
        </mxCell>
        <mxCell id="q354FGi6mWP-DZzxLEKj-2" value="" style="endArrow=none;html=1;entryX=0;entryY=0.5;entryDx=0;entryDy=0;exitX=1;exitY=0.5;exitDx=0;exitDy=0;" parent="1" source="q354FGi6mWP-DZzxLEKj-1" target="qVdDe4i9rsVP6nm5vsIZ-45" edge="1">
          <mxGeometry width="50" height="50" relative="1" as="geometry">
            <mxPoint x="530" y="-250" as="sourcePoint" />
            <mxPoint x="580" y="-300" as="targetPoint" />
          </mxGeometry>
        </mxCell>
        <mxCell id="q354FGi6mWP-DZzxLEKj-3" value="" style="endArrow=none;html=1;entryX=0;entryY=0.5;entryDx=0;entryDy=0;exitX=0.5;exitY=0.5;exitDx=0;exitDy=0;exitPerimeter=0;" parent="1" source="qVdDe4i9rsVP6nm5vsIZ-43" target="q354FGi6mWP-DZzxLEKj-1" edge="1">
          <mxGeometry width="50" height="50" relative="1" as="geometry">
            <mxPoint x="200" y="-510" as="sourcePoint" />
            <mxPoint x="580" y="-300" as="targetPoint" />
          </mxGeometry>
        </mxCell>
        <mxCell id="q354FGi6mWP-DZzxLEKj-4" value="" style="endArrow=none;html=1;entryX=0;entryY=0.5;entryDx=0;entryDy=0;exitX=0.5;exitY=0.5;exitDx=0;exitDy=0;exitPerimeter=0;" parent="1" source="qVdDe4i9rsVP6nm5vsIZ-53" target="q354FGi6mWP-DZzxLEKj-1" edge="1">
          <mxGeometry width="50" height="50" relative="1" as="geometry">
            <mxPoint x="530" y="-250" as="sourcePoint" />
            <mxPoint x="580" y="-300" as="targetPoint" />
          </mxGeometry>
        </mxCell>
        <mxCell id="q354FGi6mWP-DZzxLEKj-10" value="Define system rules" style="ellipse;whiteSpace=wrap;html=1;" parent="1" vertex="1">
          <mxGeometry x="400" y="-260" width="120" height="80" as="geometry" />
        </mxCell>
        <mxCell id="q354FGi6mWP-DZzxLEKj-11" value="" style="endArrow=none;html=1;entryX=0.5;entryY=0.5;entryDx=0;entryDy=0;entryPerimeter=0;exitX=0;exitY=0.5;exitDx=0;exitDy=0;" parent="1" source="q354FGi6mWP-DZzxLEKj-10" target="qVdDe4i9rsVP6nm5vsIZ-53" edge="1">
          <mxGeometry width="50" height="50" relative="1" as="geometry">
            <mxPoint x="580" y="-230" as="sourcePoint" />
            <mxPoint x="630" y="-280" as="targetPoint" />
          </mxGeometry>
        </mxCell>
        <mxCell id="q354FGi6mWP-DZzxLEKj-12" value="" style="endArrow=none;html=1;entryX=0;entryY=0.5;entryDx=0;entryDy=0;exitX=1;exitY=0.5;exitDx=0;exitDy=0;" parent="1" source="q354FGi6mWP-DZzxLEKj-10" target="qVdDe4i9rsVP6nm5vsIZ-45" edge="1">
          <mxGeometry width="50" height="50" relative="1" as="geometry">
            <mxPoint x="580" y="-230" as="sourcePoint" />
            <mxPoint x="630" y="-280" as="targetPoint" />
          </mxGeometry>
        </mxCell>
        <mxCell id="jjGxuz8lvU6nHTM_YAk3-1" value="Visualize system info" style="ellipse;whiteSpace=wrap;html=1;" parent="1" vertex="1">
          <mxGeometry x="400" y="-453" width="120" height="80" as="geometry" />
        </mxCell>
        <mxCell id="jjGxuz8lvU6nHTM_YAk3-5" value="" style="endArrow=block;endSize=16;endFill=0;html=1;entryX=0;entryY=0;entryDx=0;entryDy=0;exitX=1;exitY=1;exitDx=0;exitDy=0;" parent="1" source="q354FGi6mWP-DZzxLEKj-1" target="jjGxuz8lvU6nHTM_YAk3-1" edge="1">
          <mxGeometry width="160" relative="1" as="geometry">
            <mxPoint x="510" y="-280" as="sourcePoint" />
            <mxPoint x="670" y="-280" as="targetPoint" />
          </mxGeometry>
        </mxCell>
        <mxCell id="jjGxuz8lvU6nHTM_YAk3-8" value="" style="endArrow=block;endSize=16;endFill=0;html=1;entryX=0;entryY=1;entryDx=0;entryDy=0;exitX=1;exitY=0;exitDx=0;exitDy=0;" parent="1" source="qVdDe4i9rsVP6nm5vsIZ-48" target="jjGxuz8lvU6nHTM_YAk3-1" edge="1">
          <mxGeometry width="160" relative="1" as="geometry">
            <mxPoint x="390" y="-310" as="sourcePoint" />
            <mxPoint x="550" y="-310" as="targetPoint" />
          </mxGeometry>
        </mxCell>
        <mxCell id="jjGxuz8lvU6nHTM_YAk3-9" value="«extend»" style="endArrow=open;endSize=12;dashed=1;html=1;entryX=0;entryY=0.5;entryDx=0;entryDy=0;exitX=1;exitY=0.5;exitDx=0;exitDy=0;" parent="1" source="jjGxuz8lvU6nHTM_YAk3-1" target="qVdDe4i9rsVP6nm5vsIZ-61" edge="1">
          <mxGeometry width="160" relative="1" as="geometry">
            <mxPoint x="400" y="-320" as="sourcePoint" />
            <mxPoint x="560" y="-320" as="targetPoint" />
          </mxGeometry>
        </mxCell>
        <mxCell id="6AxnfC83S1B7FEyy2e9q-6" value="«include»" style="endArrow=open;endSize=12;dashed=1;html=1;exitX=0.647;exitY=0.971;exitDx=0;exitDy=0;exitPerimeter=0;" edge="1" parent="1" source="q354FGi6mWP-DZzxLEKj-10" target="qVdDe4i9rsVP6nm5vsIZ-49">
          <mxGeometry width="160" relative="1" as="geometry">
            <mxPoint x="490" y="-160" as="sourcePoint" />
            <mxPoint x="650" y="-160" as="targetPoint" />
          </mxGeometry>
        </mxCell>
      </root>
    </mxGraphModel>
  </diagram>
</mxfile>
